REM DIRINDEX 1\2\4\8,1\2\4\9,1\2\4\10,1\2\5\11,1\2\5\12,1\2\5\13,1\2\5\14,1\2\5\15,1\3\6\16,1\3\6\17,1\3\6\18,1\3\7\19,1\3\7\20,1\3\7\21,1\3\7\22,1\3\7\23
REM DIRNAME "folder01","folder02","folder03","folder04","folder05","folder06","folder07","folder08","folder09","folder10","folder11","folder12","folder13","folder14","folder15","folder16","folder17","folder18","folder19","folder20","folder21","folder22","folder23"
TITLE ""
FILE "LR_black_phrase_C05.mp3" MP3
  TRACK 01 AUDIO
    TITLE "0:"
    INDEX 01 00:00:00
  TRACK 02 AUDIO
    TITLE "19:cjc171_14401"
    INDEX 01 00:00:14
  TRACK 03 AUDIO
    TITLE "0:"
    INDEX 01 00:01:35
  TRACK 04 AUDIO
    TITLE "20:cjc171_14402"
    INDEX 01 00:01:72
  TRACK 05 AUDIO
    TITLE "0:"
    INDEX 01 00:03:67
  TRACK 06 AUDIO
    TITLE "21:cjc171_14403"
    INDEX 01 00:04:67
  TRACK 07 AUDIO
    TITLE "0:"
    INDEX 01 00:06:25
  TRACK 08 AUDIO
    TITLE "22:cjc171_14404"
    INDEX 01 00:06:64
  TRACK 09 AUDIO
    TITLE "0:"
    INDEX 01 00:08:67
  TRACK 10 AUDIO
    TITLE "23:cjc171_14405"
    INDEX 01 00:09:17
  TRACK 11 AUDIO
    TITLE "0:"
    INDEX 01 00:11:18
  TRACK 12 AUDIO
    TITLE "19:cjc171_14406"
    INDEX 01 00:12:19
  TRACK 13 AUDIO
    TITLE "0:"
    INDEX 01 00:13:46
  TRACK 14 AUDIO
    TITLE "20:cjc171_14407"
    INDEX 01 00:14:12
  TRACK 15 AUDIO
    TITLE "0:"
    INDEX 01 00:15:37
  TRACK 16 AUDIO
    TITLE "21:cjc171_14408"
    INDEX 01 00:16:37
  TRACK 17 AUDIO
    TITLE "0:"
    INDEX 01 00:18:73
  TRACK 18 AUDIO
    TITLE "22:cjc171_14409"
    INDEX 01 00:19:37
  TRACK 19 AUDIO
    TITLE "0:"
    INDEX 01 00:22:16
  TRACK 20 AUDIO
    TITLE "23:cjc171_14410"
    INDEX 01 00:22:45
  TRACK 21 AUDIO
    TITLE "0:"
    INDEX 01 00:25:26
  TRACK 22 AUDIO
    TITLE "19:cjc171_14411"
    INDEX 01 00:26:25
  TRACK 23 AUDIO
    TITLE "0:"
    INDEX 01 00:27:29
  TRACK 24 AUDIO
    TITLE "20:cjc171_14412"
    INDEX 01 00:27:62
  TRACK 25 AUDIO
    TITLE "0:"
    INDEX 01 00:29:71
  TRACK 26 AUDIO
    TITLE "21:cjc171_14413"
    INDEX 01 00:30:70
  TRACK 27 AUDIO
    TITLE "0:"
    INDEX 01 00:33:20
  TRACK 28 AUDIO
    TITLE "22:cjc171_14414"
    INDEX 01 00:33:61
  TRACK 29 AUDIO
    TITLE "0:"
    INDEX 01 00:36:36
  TRACK 30 AUDIO
    TITLE "23:cjc171_14415"
    INDEX 01 00:36:61
  TRACK 31 AUDIO
    TITLE "0:"
    INDEX 01 00:39:34
  TRACK 32 AUDIO
    TITLE "19:cjc171_14416"
    INDEX 01 00:40:29
  TRACK 33 AUDIO
    TITLE "0:"
    INDEX 01 00:41:41
  TRACK 34 AUDIO
    TITLE "20:cjc171_14417"
    INDEX 01 00:42:03
  TRACK 35 AUDIO
    TITLE "0:"
    INDEX 01 00:43:36
  TRACK 36 AUDIO
    TITLE "21:cjc171_14418"
    INDEX 01 00:44:35
  TRACK 37 AUDIO
    TITLE "0:"
    INDEX 01 00:46:22
  TRACK 38 AUDIO
    TITLE "22:cjc171_14419"
    INDEX 01 00:46:59
  TRACK 39 AUDIO
    TITLE "0:"
    INDEX 01 00:48:43
  TRACK 40 AUDIO
    TITLE "23:cjc171_14420"
    INDEX 01 00:48:62
  TRACK 41 AUDIO
    TITLE "0:"
    INDEX 01 00:50:47
  TRACK 42 AUDIO
    TITLE "19:cjc171_14421"
    INDEX 01 00:51:47
  TRACK 43 AUDIO
    TITLE "0:"
    INDEX 01 00:52:72
  TRACK 44 AUDIO
    TITLE "20:cjc171_14422"
    INDEX 01 00:53:34
  TRACK 45 AUDIO
    TITLE "0:"
    INDEX 01 00:54:67
  TRACK 46 AUDIO
    TITLE "21:cjc171_14423"
    INDEX 01 00:55:66
  TRACK 47 AUDIO
    TITLE "0:"
    INDEX 01 00:58:37
  TRACK 48 AUDIO
    TITLE "22:cjc171_14424"
    INDEX 01 00:59:01
  TRACK 49 AUDIO
    TITLE "0:"
    INDEX 01 01:01:37
  TRACK 50 AUDIO
    TITLE "23:cjc171_14425"
    INDEX 01 01:01:73
  TRACK 51 AUDIO
    TITLE "0:"
    INDEX 01 01:04:32
  TRACK 52 AUDIO
    TITLE "19:cjc171_14426"
    INDEX 01 01:05:41
  TRACK 53 AUDIO
    TITLE "0:"
    INDEX 01 01:06:70
  TRACK 54 AUDIO
    TITLE "20:cjc171_14427"
    INDEX 01 01:07:34
  TRACK 55 AUDIO
    TITLE "0:"
    INDEX 01 01:09:66
  TRACK 56 AUDIO
    TITLE "21:cjc171_14428"
    INDEX 01 01:10:64
  TRACK 57 AUDIO
    TITLE "0:"
    INDEX 01 01:13:33
  TRACK 58 AUDIO
    TITLE "22:cjc171_14429"
    INDEX 01 01:13:72
  TRACK 59 AUDIO
    TITLE "0:"
    INDEX 01 01:16:10
  TRACK 60 AUDIO
    TITLE "23:cjc171_14430"
    INDEX 01 01:16:39
  TRACK 61 AUDIO
    TITLE "0:"
    INDEX 01 01:18:55
  TRACK 62 AUDIO
    TITLE "19:cjc171_14431"
    INDEX 01 01:19:57
  TRACK 63 AUDIO
    TITLE "0:"
    INDEX 01 01:20:72
  TRACK 64 AUDIO
    TITLE "20:cjc171_14432"
    INDEX 01 01:21:32
  TRACK 65 AUDIO
    TITLE "0:"
    INDEX 01 01:23:43
  TRACK 66 AUDIO
    TITLE "21:cjc171_14433"
    INDEX 01 01:24:44
  TRACK 67 AUDIO
    TITLE "0:"
    INDEX 01 01:26:41
  TRACK 68 AUDIO
    TITLE "22:cjc171_14434"
    INDEX 01 01:26:75
  TRACK 69 AUDIO
    TITLE "0:"
    INDEX 01 01:29:36
  TRACK 70 AUDIO
    TITLE "23:cjc171_14435"
    INDEX 01 01:29:55
  TRACK 71 AUDIO
    TITLE "0:"
    INDEX 01 01:32:14
  TRACK 72 AUDIO
    TITLE "19:cjc171_14436"
    INDEX 01 01:33:12
  TRACK 73 AUDIO
    TITLE "0:"
    INDEX 01 01:34:23
  TRACK 74 AUDIO
    TITLE "20:cjc171_14437"
    INDEX 01 01:34:56
  TRACK 75 AUDIO
    TITLE "0:"
    INDEX 01 01:36:02
  TRACK 76 AUDIO
    TITLE "21:cjc171_14438"
    INDEX 01 01:36:75
  TRACK 77 AUDIO
    TITLE "0:"
    INDEX 01 01:39:62
  TRACK 78 AUDIO
    TITLE "22:cjc171_14439"
    INDEX 01 01:40:20
  TRACK 79 AUDIO
    TITLE "0:"
    INDEX 01 01:42:34
  TRACK 80 AUDIO
    TITLE "23:cjc171_14440"
    INDEX 01 01:42:56
  TRACK 81 AUDIO
    TITLE "0:"
    INDEX 01 01:44:71
  TRACK 82 AUDIO
    TITLE "19:cjc171_14441"
    INDEX 01 01:45:72
  TRACK 83 AUDIO
    TITLE "0:"
    INDEX 01 01:47:08
  TRACK 84 AUDIO
    TITLE "20:cjc171_14442"
    INDEX 01 01:47:47
  TRACK 85 AUDIO
    TITLE "0:"
    INDEX 01 01:48:60
  TRACK 86 AUDIO
    TITLE "21:cjc171_14443"
    INDEX 01 01:49:60
  TRACK 87 AUDIO
    TITLE "0:"
    INDEX 01 01:51:06
  TRACK 88 AUDIO
    TITLE "22:cjc171_14444"
    INDEX 01 01:51:45
  TRACK 89 AUDIO
    TITLE "0:"
    INDEX 01 01:53:24
  TRACK 90 AUDIO
    TITLE "23:cjc171_14445"
    INDEX 01 01:53:52
  TRACK 91 AUDIO
    TITLE "0:"
    INDEX 01 01:55:31
  TRACK 92 AUDIO
    TITLE "19:cjc171_14446"
    INDEX 01 01:56:37
  TRACK 93 AUDIO
    TITLE "0:"
    INDEX 01 01:57:50
  TRACK 94 AUDIO
    TITLE "20:cjc171_14447"
    INDEX 01 01:58:14
  TRACK 95 AUDIO
    TITLE "0:"
    INDEX 01 01:59:27
  TRACK 96 AUDIO
    TITLE "21:cjc171_14448"
    INDEX 01 02:00:28
  TRACK 97 AUDIO
    TITLE "0:"
    INDEX 01 02:01:61
  TRACK 98 AUDIO
    TITLE "22:cjc171_14449"
    INDEX 01 02:02:27
  TRACK 99 AUDIO
    TITLE "0:"
    INDEX 01 02:04:22
  TRACK 100 AUDIO
    TITLE "23:cjc171_14450"
    INDEX 01 02:04:52
  TRACK 101 AUDIO
    TITLE "0:"
    INDEX 01 02:06:49
  TRACK 102 AUDIO
    TITLE "19:cjc171_14451"
    INDEX 01 02:07:46
  TRACK 103 AUDIO
    TITLE "0:"
    INDEX 01 02:08:55
  TRACK 104 AUDIO
    TITLE "20:cjc171_14452"
    INDEX 01 02:09:14
  TRACK 105 AUDIO
    TITLE "0:"
    INDEX 01 02:10:68
  TRACK 106 AUDIO
    TITLE "21:cjc171_14453"
    INDEX 01 02:11:67
  TRACK 107 AUDIO
    TITLE "0:"
    INDEX 01 02:13:64
  TRACK 108 AUDIO
    TITLE "22:cjc171_14454"
    INDEX 01 02:14:23
  TRACK 109 AUDIO
    TITLE "0:"
    INDEX 01 02:15:75
  TRACK 110 AUDIO
    TITLE "23:cjc171_14455"
    INDEX 01 02:16:20
  TRACK 111 AUDIO
    TITLE "0:"
    INDEX 01 02:17:72
  TRACK 112 AUDIO
    TITLE "19:cjc171_14456"
    INDEX 01 02:18:69
  TRACK 113 AUDIO
    TITLE "0:"
    INDEX 01 02:20:12
  TRACK 114 AUDIO
    TITLE "20:cjc171_14457"
    INDEX 01 02:20:47
  TRACK 115 AUDIO
    TITLE "0:"
    INDEX 01 02:24:60
  TRACK 116 AUDIO
    TITLE "21:cjc171_14458"
    INDEX 01 02:25:58
  TRACK 117 AUDIO
    TITLE "0:"
    INDEX 01 02:28:05
  TRACK 118 AUDIO
    TITLE "22:cjc171_14459"
    INDEX 01 02:28:40
  TRACK 119 AUDIO
    TITLE "0:"
    INDEX 01 02:30:37
  TRACK 120 AUDIO
    TITLE "23:cjc171_14460"
    INDEX 01 02:30:63
  TRACK 121 AUDIO
    TITLE "0:"
    INDEX 01 02:32:58
  TRACK 122 AUDIO
    TITLE "19:cjc171_14461"
    INDEX 01 02:33:59
  TRACK 123 AUDIO
    TITLE "0:"
    INDEX 01 02:35:07
  TRACK 124 AUDIO
    TITLE "20:cjc171_14462"
    INDEX 01 02:35:44
  TRACK 125 AUDIO
    TITLE "0:"
    INDEX 01 02:39:44
  TRACK 126 AUDIO
    TITLE "21:cjc171_14463"
    INDEX 01 02:40:46
  TRACK 127 AUDIO
    TITLE "0:"
    INDEX 01 02:42:23
  TRACK 128 AUDIO
    TITLE "22:cjc171_14464"
    INDEX 01 02:42:62
  TRACK 129 AUDIO
    TITLE "0:"
    INDEX 01 02:44:49
  TRACK 130 AUDIO
    TITLE "23:cjc171_14465"
    INDEX 01 02:45:02
  TRACK 131 AUDIO
    TITLE "0:"
    INDEX 01 02:46:64
  TRACK 132 AUDIO
    TITLE "19:cjc171_14466"
    INDEX 01 02:47:67
  TRACK 133 AUDIO
    TITLE "0:"
    INDEX 01 02:49:21
  TRACK 134 AUDIO
    TITLE "20:cjc171_14467"
    INDEX 01 02:49:62
  TRACK 135 AUDIO
    TITLE "0:"
    INDEX 01 02:52:70
  TRACK 136 AUDIO
    TITLE "21:cjc171_14468"
    INDEX 01 02:53:70
  TRACK 137 AUDIO
    TITLE "0:"
    INDEX 01 02:56:29
  TRACK 138 AUDIO
    TITLE "22:cjc171_14469"
    INDEX 01 02:56:66
  TRACK 139 AUDIO
    TITLE "0:"
    INDEX 01 02:59:47
  TRACK 140 AUDIO
    TITLE "23:cjc171_14470"
    INDEX 01 02:59:74
  TRACK 141 AUDIO
    TITLE "0:"
    INDEX 01 03:02:53
  TRACK 142 AUDIO
    TITLE "19:cjc171_14471"
    INDEX 01 03:03:56
  TRACK 143 AUDIO
    TITLE "0:"
    INDEX 01 03:04:64
  TRACK 144 AUDIO
    TITLE "20:cjc171_14472"
    INDEX 01 03:05:22
  TRACK 145 AUDIO
    TITLE "0:"
    INDEX 01 03:08:09
  TRACK 146 AUDIO
    TITLE "21:cjc171_14473"
    INDEX 01 03:09:10
  TRACK 147 AUDIO
    TITLE "0:"
    INDEX 01 03:11:05
  TRACK 148 AUDIO
    TITLE "22:cjc171_14474"
    INDEX 01 03:11:40
  TRACK 149 AUDIO
    TITLE "0:"
    INDEX 01 03:13:33
  TRACK 150 AUDIO
    TITLE "23:cjc171_14475"
    INDEX 01 03:13:53
  TRACK 151 AUDIO
    TITLE "0:"
    INDEX 01 03:15:46
  TRACK 152 AUDIO
    TITLE "19:cjc171_14476"
    INDEX 01 03:16:39
  TRACK 153 AUDIO
    TITLE "0:"
    INDEX 01 03:17:43
  TRACK 154 AUDIO
    TITLE "20:cjc171_14477"
    INDEX 01 03:18:03
  TRACK 155 AUDIO
    TITLE "0:"
    INDEX 01 03:20:14
  TRACK 156 AUDIO
    TITLE "21:cjc171_14478"
    INDEX 01 03:21:13
  TRACK 157 AUDIO
    TITLE "0:"
    INDEX 01 03:22:54
  TRACK 158 AUDIO
    TITLE "22:cjc171_14479"
    INDEX 01 03:23:10
  TRACK 159 AUDIO
    TITLE "0:"
    INDEX 01 03:24:61
  TRACK 160 AUDIO
    TITLE "23:cjc171_14480"
    INDEX 01 03:25:07
  TRACK 161 AUDIO
    TITLE "0:"
    INDEX 01 03:26:57
  TRACK 162 AUDIO
    TITLE "19:cjc171_14481"
    INDEX 01 03:27:59
  TRACK 163 AUDIO
    TITLE "0:"
    INDEX 01 03:29:01
  TRACK 164 AUDIO
    TITLE "20:cjc171_14482"
    INDEX 01 03:29:40
  TRACK 165 AUDIO
    TITLE "0:"
    INDEX 01 03:31:47
  TRACK 166 AUDIO
    TITLE "21:cjc171_14483"
    INDEX 01 03:32:44
  TRACK 167 AUDIO
    TITLE "0:"
    INDEX 01 03:34:18
  TRACK 168 AUDIO
    TITLE "22:cjc171_14484"
    INDEX 01 03:34:59
  TRACK 169 AUDIO
    TITLE "0:"
    INDEX 01 03:36:58
  TRACK 170 AUDIO
    TITLE "23:cjc171_14485"
    INDEX 01 03:37:12
  TRACK 171 AUDIO
    TITLE "0:"
    INDEX 01 03:39:11
  TRACK 172 AUDIO
    TITLE "19:cjc171_14486"
    INDEX 01 03:40:14
  TRACK 173 AUDIO
    TITLE "0:"
    INDEX 01 03:41:33
  TRACK 174 AUDIO
    TITLE "20:cjc171_14487"
    INDEX 01 03:41:69
  TRACK 175 AUDIO
    TITLE "0:"
    INDEX 01 03:43:72
  TRACK 176 AUDIO
    TITLE "21:cjc171_14488"
    INDEX 01 03:44:73
  TRACK 177 AUDIO
    TITLE "0:"
    INDEX 01 03:46:54
  TRACK 178 AUDIO
    TITLE "22:cjc171_14489"
    INDEX 01 03:47:20
  TRACK 179 AUDIO
    TITLE "0:"
    INDEX 01 03:49:43
  TRACK 180 AUDIO
    TITLE "23:cjc171_14490"
    INDEX 01 03:49:72
  TRACK 181 AUDIO
    TITLE "0:"
    INDEX 01 03:52:20
  TRACK 182 AUDIO
    TITLE "19:cjc171_14491"
    INDEX 01 03:53:23
  TRACK 183 AUDIO
    TITLE "0:"
    INDEX 01 03:54:22
  TRACK 184 AUDIO
    TITLE "20:cjc171_14492"
    INDEX 01 03:54:58
  TRACK 185 AUDIO
    TITLE "0:"
    INDEX 01 03:57:23
  TRACK 186 AUDIO
    TITLE "21:cjc171_14493"
    INDEX 01 03:58:22
  TRACK 187 AUDIO
    TITLE "0:"
    INDEX 01 04:00:62
  TRACK 188 AUDIO
    TITLE "22:cjc171_14494"
    INDEX 01 04:01:22
  TRACK 189 AUDIO
    TITLE "0:"
    INDEX 01 04:03:64
  TRACK 190 AUDIO
    TITLE "23:cjc171_14495"
    INDEX 01 04:04:09
  TRACK 191 AUDIO
    TITLE "0:"
    INDEX 01 04:06:53
  TRACK 192 AUDIO
    TITLE "19:cjc171_14496"
    INDEX 01 04:07:47
  TRACK 193 AUDIO
    TITLE "0:"
    INDEX 01 04:09:20
  TRACK 194 AUDIO
    TITLE "20:cjc171_14497"
    INDEX 01 04:09:55
  TRACK 195 AUDIO
    TITLE "0:"
    INDEX 01 04:12:36
  TRACK 196 AUDIO
    TITLE "21:cjc171_14498"
    INDEX 01 04:13:37
  TRACK 197 AUDIO
    TITLE "0:"
    INDEX 01 04:16:02
  TRACK 198 AUDIO
    TITLE "22:cjc171_14499"
    INDEX 01 04:16:38
  TRACK 199 AUDIO
    TITLE "0:"
    INDEX 01 04:18:74
  TRACK 200 AUDIO
    TITLE "23:cjc171_14500"
    INDEX 01 04:19:18
  TRACK 201 AUDIO
    TITLE "0:"
    INDEX 01 04:21:57
